<?xml version="1.0" standalone="no"?>
<!DOCTYPE svg PUBLIC "-//W3C//DTD SVG 20010904//EN"
 "http://www.w3.org/TR/2001/REC-SVG-20010904/DTD/svg10.dtd">
<svg version="1.0" xmlns="http://www.w3.org/2000/svg"
 width="256.000000pt" height="256.000000pt" viewBox="0 0 256.000000 256.000000"
 preserveAspectRatio="xMidYMid meet">

<g transform="translate(0.000000,256.000000) scale(0.100000,-0.100000)"
fill="#c084fc" stroke="none">
<path d="M1595 2430 c-166 -55 -259 -203 -259 -412 l-1 -98 -31 0 c-17 0 -77
-16 -133 -35 -56 -19 -109 -35 -119 -35 -29 0 -245 157 -277 202 -17 23 -35
43 -41 45 -6 2 -28 -8 -50 -23 l-39 -27 -35 20 c-53 30 -86 36 -104 17 -21
-21 -21 -23 16 -61 l32 -33 -42 0 c-36 0 -44 -4 -54 -26 -9 -20 -9 -30 1 -46
9 -15 10 -23 2 -31 -17 -17 -14 -77 4 -77 12 0 15 -9 13 -35 -3 -46 5 -51 52
-35 32 11 45 11 68 1 44 -20 161 -101 244 -168 112 -90 100 -87 254 -73 74 7
136 11 139 9 9 -9 -34 -86 -66 -117 -39 -39 -119 -82 -207 -111 -49 -17 -87
-21 -191 -21 -71 0 -151 -4 -178 -10 -26 -5 -65 -12 -87 -15 -85 -14 -194
-166 -237 -332 -22 -88 -29 -97 -84 -115 -48 -16 -60 -49 -24 -69 25 -13 192
-39 254 -39 56 0 122 59 181 160 24 43 52 81 61 84 8 4 83 3 166 0 l150 -7
-30 -26 c-17 -14 -47 -39 -68 -55 -21 -16 -46 -49 -58 -75 -18 -41 -19 -58
-14 -176 8 -149 27 -249 58 -305 l22 -39 -31 -36 c-34 -38 -40 -63 -20 -83 18
-18 48 -14 108 15 30 14 82 33 114 42 39 11 65 25 78 41 28 38 41 140 33 267
l-7 111 34 7 c18 3 116 34 217 67 209 70 306 124 354 197 l29 44 55 -7 c31 -4
60 -9 65 -12 6 -4 7 -25 3 -50 -9 -61 6 -84 53 -84 21 0 42 -4 48 -10 5 -5 53
-7 116 -3 152 9 158 13 202 155 77 247 89 305 83 408 -6 116 -34 208 -87 288
l-40 59 25 62 c13 34 34 100 45 146 27 107 21 144 -31 196 -33 33 -39 45 -39
82 0 33 -6 49 -22 64 -33 28 -86 57 -153 82 -32 12 -79 40 -104 63 -75 66
-139 90 -256 94 -80 3 -112 0 -160 -16z m88 -174 c29 -13 68 -38 87 -56 32
-29 32 -30 5 -12 -53 34 -110 60 -150 68 -33 6 -37 5 -32 -10 4 -10 1 -16 -8
-16 -17 0 -20 -16 -5 -25 16 -10 12 -25 -6 -18 -12 4 -14 0 -8 -23 5 -24 4
-27 -7 -16 -20 19 -31 14 -24 -10 6 -19 5 -21 -6 -10 -19 17 -29 15 -22 -5 6
-16 4 -16 -15 1 -22 19 -22 19 -22 0 -1 -16 -3 -16 -14 5 -10 18 -15 21 -22
10 -6 -11 -9 -8 -14 9 -3 13 -9 23 -15 22 -29 -2 -47 -167 -25 -225 5 -14 6
-24 1 -21 -19 12 -30 92 -21 153 6 46 54 182 64 183 0 0 19 7 41 15 55 21 152
12 218 -19z m463 -2 c68 -28 124 -73 124 -98 0 -12 -3 -25 -6 -29 -11 -11
-150 82 -162 108 -19 42 -15 44 44 19z m67 -133 c130 -89 153 -122 142 -201
-9 -57 -63 -227 -75 -235 -5 -3 -32 19 -60 49 -28 30 -64 59 -80 66 -36 15
-38 35 -10 108 22 57 27 172 11 230 -5 17 -7 32 -5 32 3 0 37 -22 77 -49z
m-1606 -73 c18 -11 43 -38 54 -59 23 -46 40 -49 59 -11 23 44 23 48 1 23 -25
-28 -51 -22 -51 13 0 26 45 70 62 60 5 -4 17 -19 27 -35 10 -16 69 -65 132
-110 63 -45 117 -84 121 -88 4 -3 -2 -31 -12 -61 -19 -54 -27 -180 -12 -180 4
0 7 28 8 63 1 76 19 133 47 152 18 11 191 75 204 75 1 0 3 -12 3 -27 l1 -28
14 33 c8 17 21 32 31 32 11 0 14 -5 9 -17 -4 -10 -9 -29 -11 -43 -4 -24 -4
-24 7 3 6 15 14 27 18 27 5 0 19 -33 32 -72 22 -66 29 -76 76 -109 29 -20 85
-47 125 -60 63 -21 91 -24 208 -23 155 0 229 20 287 76 59 57 35 -19 -28 -87
-47 -51 -40 -62 8 -13 32 33 83 130 83 158 0 8 5 22 11 30 8 11 9 0 5 -40 -4
-37 -2 -50 4 -40 5 8 10 24 10 35 0 11 5 27 10 35 8 12 16 8 50 -25 59 -57
130 -153 130 -176 0 -30 -73 -102 -129 -129 -51 -24 -71 -47 -28 -34 46 14 82
38 129 86 27 28 51 48 54 46 2 -3 -13 -27 -34 -54 -40 -51 -140 -114 -180
-114 -12 0 -24 -4 -27 -10 -11 -18 39 -10 93 15 29 13 77 48 107 76 l55 51 11
-28 c6 -16 15 -65 21 -109 9 -65 8 -96 -6 -164 -8 -47 -23 -92 -31 -100 -12
-12 -39 -16 -118 -16 -56 0 -117 3 -134 7 -19 4 -33 3 -33 -2 0 -17 107 -33
194 -28 l87 4 -6 -25 c-27 -110 -68 -222 -88 -236 -32 -22 -45 -19 -39 11 l5
26 -26 -26 c-14 -14 -35 -26 -45 -26 -16 0 -18 5 -14 28 l5 27 -26 -31 c-16
-19 -39 -34 -57 -36 -33 -5 -40 11 -15 32 8 7 15 20 15 29 -1 14 -2 14 -11 -2
-12 -21 -61 -47 -87 -47 -11 0 -25 7 -32 15 -10 12 -7 20 14 46 14 17 26 42
26 57 0 24 -1 25 -13 7 -17 -22 -37 -12 -37 19 0 13 12 31 30 44 16 12 33 34
36 48 7 28 5 28 109 0 66 -18 152 -21 175 -6 10 7 -6 10 -55 10 -105 0 -205
30 -205 60 0 10 13 68 29 129 26 101 28 115 15 140 -13 25 -78 76 -141 110
-40 21 -26 -7 17 -34 32 -20 40 -31 40 -54 0 -44 -46 -194 -81 -264 -29 -58
-108 -174 -152 -224 l-19 -22 -62 50 c-68 55 -168 109 -200 108 -13 0 -2 -8
28 -20 58 -24 128 -69 178 -117 36 -34 37 -37 21 -54 -32 -36 -84 -60 -280
-130 -178 -63 -205 -70 -273 -70 -41 0 -101 7 -133 15 -45 12 -56 12 -47 2 13
-16 86 -35 135 -35 48 0 56 -23 57 -180 1 -146 -14 -197 -65 -215 -42 -14
-154 18 -190 54 -44 44 -68 141 -74 301 l-5 135 53 -53 c52 -51 97 -73 149
-71 17 1 10 5 -22 14 -26 7 -62 22 -81 34 -36 22 -87 90 -87 116 0 22 15 18
29 -7 11 -21 11 -21 5 7 -3 17 -7 36 -8 44 0 7 54 54 122 103 67 49 122 95
122 102 0 8 -7 19 -15 26 -12 10 -14 27 -9 80 6 65 -6 133 -26 145 -5 3 -2
-15 7 -40 10 -30 13 -60 9 -88 -10 -63 -11 -100 -2 -119 6 -13 0 -22 -26 -38
-29 -18 -50 -20 -179 -20 -197 0 -205 2 -212 51 -10 76 -86 170 -137 169 -10
-1 -9 -4 5 -12 27 -15 95 -80 95 -91 0 -5 -18 7 -40 27 -57 51 -60 45 -7 -14
25 -28 51 -66 57 -85 11 -32 8 -41 -27 -112 -65 -131 -143 -192 -219 -172 -54
16 -104 68 -104 110 0 49 24 129 60 206 42 91 75 133 99 126 10 -3 22 0 25 6
4 6 0 11 -11 11 -16 0 -15 2 4 21 33 33 123 49 319 58 99 4 186 11 192 15 27
17 52 -5 69 -62 9 -31 18 -50 20 -41 2 9 -5 39 -15 67 l-20 51 77 42 c42 22
83 47 92 55 43 39 110 229 109 311 -1 44 -16 7 -24 -57 -4 -30 -11 -62 -16
-69 -5 -10 -45 -19 -117 -27 -163 -19 -150 -23 -163 43 -7 32 -10 88 -8 125 3
37 2 65 -2 63 -13 -8 -19 -109 -11 -170 5 -33 7 -62 5 -64 -6 -6 -136 84 -184
127 l-41 37 56 64 c65 74 90 109 82 117 -3 3 -19 -14 -35 -38 -17 -24 -38 -51
-48 -59 -15 -11 -14 -9 3 16 34 50 64 116 61 133 -2 10 -18 -11 -38 -52 -23
-46 -51 -83 -82 -109 l-48 -40 -57 31 c-53 28 -60 29 -83 17 -14 -8 -31 -14
-37 -15 -20 0 -15 27 8 49 15 13 23 38 28 79 5 40 16 74 34 101 l27 41 -23 0
c-29 0 -75 45 -55 53 17 7 43 -1 85 -25z m1441 -11 c43 -35 46 -134 6 -178
-47 -52 -125 -43 -150 17 -26 63 -11 121 43 164 29 23 72 22 101 -3z m-1520
-89 c-2 -18 -8 -22 -28 -20 -31 5 -34 7 -27 27 4 8 18 15 32 15 22 0 26 -4 23
-22z m977 -153 c80 -40 151 -55 255 -55 107 0 177 16 265 59 33 16 61 28 63
26 8 -8 -9 -71 -27 -101 -33 -55 -174 -103 -299 -104 -117 0 -293 55 -349 109
-29 28 -49 67 -57 114 -11 57 1 61 51 17 25 -22 69 -51 98 -65z m-985 64 c0
-27 -3 -30 -27 -27 -32 4 -39 20 -18 42 26 26 45 20 45 -15z m1515 -514 c1
-11 4 -26 9 -33 5 -8 -7 -72 -30 -159 -35 -134 -41 -148 -79 -187 -36 -38 -45
-42 -78 -38 -20 2 -37 7 -37 11 0 3 18 33 40 66 48 72 90 171 121 283 17 63
26 82 38 80 9 -2 16 -12 16 -23z"/>
<path d="M2233 1979 c-18 -5 -33 -12 -33 -14 0 -11 58 -4 76 10 23 17 7 18
-43 4z"/>
<path d="M1326 1588 c-18 -29 -68 -203 -64 -223 4 -21 287 -187 312 -183 43 6
129 216 108 262 -14 30 -106 90 -202 132 -93 40 -134 43 -154 12z m189 -52
c101 -50 145 -81 145 -101 0 -9 -23 0 -67 26 -69 40 -210 99 -238 99 -16 0
-20 12 -7 24 14 15 78 -4 167 -48z m-10 -55 c55 -26 111 -57 124 -68 l25 -20
-17 -61 c-19 -68 -53 -132 -71 -132 -6 0 -72 36 -146 79 -155 91 -155 91 -120
197 l22 66 42 -6 c22 -4 86 -29 141 -55z"/>
<path d="M1205 1030 l-40 -7 37 -2 c20 0 40 4 43 9 3 6 5 9 3 9 -2 -1 -21 -5
-43 -9z"/>
<path d="M1215 993 c-69 -11 -36 -18 88 -18 153 0 210 -15 276 -72 23 -19 44
-33 47 -30 12 11 -93 88 -140 103 -52 16 -217 26 -271 17z"/>
</g>
</svg>
